# xmcd
# 
# Track frame offsets:
#     150
#     12532
#     24982
#     37670
#     51480
#     62577
#     74330
#     86772
#     99235
#     109295
#     121737
#     134520
#     147872
#     161030
#     174300
#     187575
#     199227
#     211125
#     222090
#     234490
#     245435
#     257307
#     270192
#     281837
# 
# Disc length: 3914
# 
# Revision: 5
# Processed by: cddbd v1.5.2PL0 Copyright (c) Steve Scherf et al.
# Submitted via: fre:ac v1.1beta1
# 
DISCID=4b0f4818
DTITLE=Hank Williams - 24 Of Hank Williams' Greatest Hits
DYEAR=1976
DGENRE=Country
TTITLE0=Your Cheatin' Heart
TTITLE1=Move It On Over
TTITLE2=I'm So Lonesome I Could Cry
TTITLE3=Ramblin' Man
TTITLE4=My Heart Would Know
TTITLE5=Kaw-Liga
TTITLE6=Cold, Cold Heart
TTITLE7=Lovesick Blues
TTITLE8=Honky Tonk Blues
TTITLE9=Honky Tonkin'
TTITLE10=There'll Be No Teardrops Tonight
TTITLE11=Mind Your Own Business
TTITLE12=Jambalaya (On The Bayou)
TTITLE13=Wedding Bells
TTITLE14=Hey, Good Lookin'
TTITLE15=Window Shopping
TTITLE16=Settin' The Woods On Fire
TTITLE17=I Can't Help It (If I'm Still In Love With You)
TTITLE18=Half As Much
TTITLE19=Why Don't You Love Me
TTITLE20=You Win Again
TTITLE21=May You Never Be Alone
TTITLE22=Baby, We're Really In Love
TTITLE23=Take These Chains From My Heart
EXTD=YEAR: 1976 ID3G: 2
EXTT0=
EXTT1=
EXTT2=
EXTT3=
EXTT4=
EXTT5=
EXTT6=
EXTT7=
EXTT8=
EXTT9=
EXTT10=
EXTT11=
EXTT12=
EXTT13=
EXTT14=
EXTT15=
EXTT16=
EXTT17=
EXTT18=
EXTT19=
EXTT20=
EXTT21=
EXTT22=
EXTT23=
PLAYORDER=
